<svg width="101" height="24" viewBox="0 0 101 24" fill="none" xmlns="http://www.w3.org/2000/svg">
<path d="M0.147737 15.4256L1.42197 15.2224V3.4589L0 3.27423L0.0738684 2H8.97501L8.7534 5.56415L6.98056 5.50875L6.86976 3.27423H4.11816V8.57429H5.31852L5.59553 7.35546L6.83282 7.39239V11.0489H5.59553L5.30006 9.79312H4.0997V15.4071H6.86976L7.1283 12.9695L8.99347 13.0249L9.14121 16.7367H0.0923355L0.147737 15.4256Z" fill="#041316"/>
<path d="M9.97408 16.7557L10.0295 15.6661L11.0267 15.463V8.0392L9.86328 7.9284V6.82037L12.7811 6.39563L13.0027 7.02351V7.44825C13.7044 6.70957 14.5539 6.26636 15.6435 6.26636C17.2317 6.26636 18.4135 7.22665 18.4135 9.12876V15.4445L19.4662 15.6476L19.4108 16.7372H15.939V9.68277C15.939 8.66708 15.5696 8.0946 14.6463 8.0946C14.3323 8.0946 14.1107 8.15 13.8706 8.24234C13.7229 8.37161 13.5752 8.55628 13.4459 8.72248V15.4814L14.4985 15.6846L14.4247 16.7741H9.97408V16.7557Z" fill="#041316"/>
<path d="M65.7631 16.7557L65.8 15.6661L66.7972 15.463V8.0392L65.6338 7.9284V6.82037L68.5516 6.39563L68.7732 7.02351V7.44825C69.4749 6.70957 70.3244 6.26636 71.414 6.26636C73.0022 6.26636 74.1841 7.22665 74.1841 9.12876V15.4445L75.2367 15.6476L75.1813 16.7372H71.7279V9.68277C71.7279 8.66708 71.3586 8.0946 70.4352 8.0946C70.1213 8.0946 69.8997 8.15 69.6596 8.24234C69.5119 8.37161 69.3641 8.55628 69.2349 8.72248V15.4814L70.2875 15.6846L70.2136 16.7741H65.7631V16.7557Z" fill="#041316"/>
<path d="M24.9655 16.5564C24.5592 16.7226 23.839 16.9073 22.8972 16.9073C21.6599 16.9073 20.5149 16.3533 20.5149 14.5435V8.04307L19.333 7.8584L19.3884 6.5657L20.718 6.5103L21.2905 4.53432L22.9895 4.46045V6.58417H24.8177L24.6885 7.87686L23.008 8.06153V14.562C23.008 15.0975 23.3034 15.4484 23.8574 15.4484H24.8547L24.9655 16.5564Z" fill="#041316"/>
<path d="M94.0873 16.7553L94.1242 15.6842L95.066 15.4626V8.03887L93.958 7.92807V6.82004L96.9866 6.3953L97.1897 7.11551V7.35559C97.9838 6.76464 99.0549 6.37683 100.348 6.37683L100.791 6.76464L100.477 9.57164L98.8149 9.51624L98.6487 8.0204C98.2608 8.0758 97.8915 8.18661 97.5776 8.40821V15.4811L98.6302 15.7027L98.5563 16.7738H94.0873V16.7553Z" fill="#041316"/>
<path d="M50.5991 16.7553L50.6545 15.6842L51.5963 15.4626V8.03887L50.4883 7.92807V6.82004L53.5169 6.3953L53.72 7.11551V7.35559C54.5141 6.76464 55.5852 6.37683 56.8779 6.37683L57.3211 6.76464L56.9702 9.57164L55.3082 9.51624L55.142 8.0204C54.7542 8.0758 54.3848 8.18661 54.0709 8.40821V15.4811L55.1235 15.7027L55.0497 16.7738H50.5991V16.7553Z" fill="#041316"/>
<path d="M25.7026 16.7553L25.758 15.6842L26.6998 15.4626V8.03887L25.5918 7.92807V6.82004L28.6204 6.3953L28.8235 7.11551V7.35559C29.6176 6.76464 30.6887 6.37683 31.9629 6.37683L32.4062 6.76464L32.0922 9.57164L30.4302 9.51624L30.264 8.0204C29.8762 8.0758 29.5068 8.18661 29.1929 8.40821V15.4811L30.2455 15.7027L30.1716 16.7738H25.7026V16.7553Z" fill="#041316"/>
<path d="M35.2728 12.2383C35.2728 14.0112 36.0484 15.3777 37.5812 15.3777C38.3753 15.3777 39.0032 15.2115 39.7418 14.8607L40.1666 15.8394C39.4094 16.4488 38.3014 16.9105 36.9164 16.9105C34.2202 16.9105 32.6689 14.5837 32.6689 11.592C32.6689 9.04354 33.7954 6.255 36.8794 6.255C39.5756 6.255 40.5913 8.74806 40.5913 11.5181L40.3328 12.1829L35.2728 12.2383ZM35.2359 11.0564L38.3383 10.9087C38.2829 9.67142 38.0244 7.7139 36.8056 7.7139C36.5101 7.7139 36.307 7.76931 35.9376 7.95398C35.439 8.80346 35.2359 10.3362 35.2359 11.0564Z" fill="#041316"/>
<path d="M78.1908 12.2383C78.1908 14.0112 78.9664 15.3777 80.4992 15.3777C81.2932 15.3777 81.9211 15.2115 82.6598 14.8607L83.0846 15.8394C82.3274 16.4488 81.2194 16.9105 79.8343 16.9105C77.1382 16.9105 75.5869 14.5837 75.5869 11.592C75.5869 9.04354 76.7134 6.255 79.7974 6.255C82.4936 6.255 83.5093 8.74806 83.5093 11.5181L83.2508 12.1829L78.1908 12.2383ZM78.1538 11.0564L81.2563 10.9087C81.2009 9.67142 80.9424 7.7139 79.7235 7.7139C79.4281 7.7139 79.2249 7.76931 78.8556 7.95398C78.357 8.80346 78.1538 10.3362 78.1538 11.0564Z" fill="#041316"/>
<path d="M60.1664 12.2383C60.1664 14.0112 60.942 15.3777 62.4747 15.3777C63.2688 15.3777 63.8967 15.2115 64.6354 14.8607L65.0601 15.8394C64.303 16.4488 63.195 16.9105 61.8099 16.9105C59.1137 16.9105 57.5625 14.5837 57.5625 11.592C57.5625 9.04354 58.689 6.255 61.773 6.255C64.4692 6.255 65.4849 8.74806 65.4849 11.5181L65.2263 12.1829L60.1664 12.2383ZM60.1294 11.0564L63.2319 10.9087C63.1765 9.67142 62.918 7.7139 61.6991 7.7139C61.4037 7.7139 61.2005 7.76931 60.8312 7.95398C60.3326 8.80346 60.111 10.3362 60.1294 11.0564Z" fill="#041316"/>
<path d="M90.4882 16.759L90.2296 15.8726C89.5464 16.5189 88.8815 16.9068 87.8474 16.9068C86.2592 16.9068 84.8373 16.1127 84.8373 13.9151V7.78401L83.6738 7.67321V6.69445L87.0348 6.30664L87.2934 7.19306V13.6196C87.2934 14.7461 87.7551 15.337 88.6599 15.337C88.9185 15.337 89.2509 15.3001 89.5464 15.1893C89.7126 15.0231 89.8788 14.82 90.008 14.6168V7.78401L88.8077 7.67321V6.69445L92.2056 6.30664L92.4642 7.19306V15.4663L93.5168 15.6695L93.3875 16.759H90.4882V16.759Z" fill="#041316"/>
<path d="M45.633 15.426C45.0974 15.426 44.6727 15.3337 44.3403 15.149V8.63015C44.488 8.40854 44.6542 8.2054 44.8204 8.02073C45.1343 7.90993 45.4113 7.87299 45.7438 7.87299C47.1288 7.87299 47.3689 9.27649 47.3689 11.788C47.3689 14.2072 46.9995 14.872 46.9072 15.149C46.5194 15.3337 46.1131 15.426 45.633 15.426ZM49.7696 11.3448C49.7696 8.22387 48.8462 6.26636 46.5378 6.26636C45.0051 6.26636 44.2849 7.15278 43.9894 7.52212V7.17125L43.7308 6.28482L40.7207 6.70957V7.78066L41.8841 7.9284V20.523L40.8869 20.7261L40.8315 21.7787H45.2821L45.3559 20.7261L44.3033 20.523V16.5341C44.7281 16.7741 45.319 16.9219 45.9654 16.9219C49.7326 16.9219 49.7696 13.0992 49.7696 11.3448Z" fill="#041316"/>
</svg>
