<svg width="69" height="24" viewBox="0 0 69 24" fill="none" xmlns="http://www.w3.org/2000/svg">
<path d="M13.5218 12.0629C13.5218 11.6083 13.4814 11.1765 13.4123 10.7563H6.90771V13.3524H10.6321C10.4651 14.2044 9.97589 14.9239 9.25059 15.4133V17.1401H11.4725C12.7734 15.937 13.5218 14.1641 13.5218 12.0629Z" fill="#4285F4"/>
<path d="M6.9087 18.815C8.77374 18.815 10.3338 18.1933 11.4735 17.14L9.25158 15.4131C8.62991 15.8276 7.84122 16.0809 6.9087 16.0809C5.10707 16.0809 3.58157 14.8662 3.0348 13.2256H0.743652V15.0044C1.87772 17.2608 4.20909 18.815 6.9087 18.815Z" fill="#34A853"/>
<path d="M3.03363 13.2257C2.88965 12.8112 2.8149 12.3679 2.8149 11.9074C2.8149 11.4469 2.89548 11.0038 3.03363 10.5893V8.81055H0.742635C0.27062 9.74306 0 10.7907 0 11.9074C0 13.0241 0.27062 14.0718 0.742635 15.0043L3.03363 13.2257Z" fill="#FBBC05"/>
<path d="M6.9087 7.73431C7.92764 7.73431 8.83713 8.08537 9.55674 8.77044L11.5254 6.80179C10.3338 5.68507 8.77374 5 6.9087 5C4.20909 5 1.87772 6.5542 0.743652 8.81066L3.0348 10.5894C3.58157 8.94881 5.10707 7.73431 6.9087 7.73431Z" fill="#EA4335"/>
<path d="M29.2734 15.9008C28.8686 16.3854 28.2965 16.7627 27.557 17.0326C26.8176 17.2974 25.998 17.4299 25.0987 17.4299C24.1542 17.4299 23.3248 17.2249 22.6103 16.8152C21.9006 16.4005 21.3511 15.8009 20.9614 15.0164C20.5765 14.2318 20.3791 13.3099 20.3691 12.2506V11.5086C20.3691 10.4193 20.5515 9.47745 20.9164 8.68293C21.2862 7.8835 21.8157 7.27379 22.5053 6.85412C23.1999 6.42938 24.0119 6.21709 24.9412 6.21709C26.2353 6.21709 27.2472 6.52686 27.9768 7.14639C28.7062 7.761 29.1385 8.65791 29.2734 9.83725H27.0848C26.9849 9.21266 26.7626 8.75538 26.4178 8.46557C26.078 8.17576 25.6083 8.03086 25.0087 8.03086C24.2441 8.03086 23.662 8.31821 23.2623 8.89276C22.8626 9.46747 22.6601 10.3219 22.6552 11.4562V12.1533C22.6552 13.2975 22.8726 14.162 23.3073 14.7465C23.742 15.3312 24.379 15.6235 25.2185 15.6235C26.0629 15.6235 26.6651 15.4436 27.0249 15.0838V13.2026H24.9788V11.546H29.2734V15.9008ZM30.776 13.1501C30.776 12.3456 30.9309 11.6286 31.2407 10.9989C31.5506 10.3693 31.9953 9.88223 32.5749 9.53747C33.1594 9.19255 33.8365 9.02017 34.606 9.02017C35.7003 9.02017 36.5923 9.35495 37.2819 10.0245C37.9764 10.6941 38.3636 11.6036 38.4436 12.7528L38.4586 13.3074C38.4586 14.5517 38.1114 15.551 37.4168 16.3055C36.7222 17.055 35.7903 17.4299 34.6211 17.4299C33.4519 17.4299 32.5173 17.055 31.8178 16.3055C31.1232 15.5561 30.776 14.5367 30.776 13.2474V13.1501ZM32.9421 13.3074C32.9421 14.0769 33.087 14.6665 33.3768 15.0764C33.6666 15.481 34.0814 15.6835 34.6211 15.6835C35.1457 15.6835 35.5554 15.4836 35.8503 15.0838C36.145 14.6791 36.2925 14.0344 36.2925 13.1501C36.2925 12.3955 36.145 11.811 35.8503 11.3962C35.5554 10.9814 35.1407 10.7741 34.606 10.7741C34.0765 10.7741 33.6666 10.9814 33.3768 11.3962C33.087 11.8059 32.9421 12.4431 32.9421 13.3074ZM39.6089 13.1501C39.6089 12.3456 39.7638 11.6286 40.0736 10.9989C40.3835 10.3693 40.8282 9.88223 41.4078 9.53747C41.9923 9.19255 42.6694 9.02017 43.4389 9.02017C44.5332 9.02017 45.4252 9.35495 46.1148 10.0245C46.8093 10.6941 47.1965 11.6036 47.2764 12.7528L47.2915 13.3074C47.2915 14.5517 46.9443 15.551 46.2497 16.3055C45.5551 17.055 44.6232 17.4299 43.454 17.4299C42.2848 17.4299 41.3502 17.055 40.6507 16.3055C39.9561 15.5561 39.6089 14.5367 39.6089 13.2474V13.1501ZM41.775 13.3074C41.775 14.0769 41.9199 14.6665 42.2097 15.0764C42.4995 15.481 42.9143 15.6835 43.454 15.6835C43.9786 15.6835 44.3883 15.4836 44.6832 15.0838C44.9779 14.6791 45.1254 14.0344 45.1254 13.1501C45.1254 12.3955 44.9779 11.811 44.6832 11.3962C44.3883 10.9814 43.9736 10.7741 43.4389 10.7741C42.9093 10.7741 42.4995 10.9814 42.2097 11.3962C41.9199 11.8059 41.775 12.4431 41.775 13.3074ZM48.4644 13.165C48.4644 11.9209 48.7591 10.919 49.3487 10.1595C49.9434 9.39993 50.7428 9.02017 51.7472 9.02017C52.6367 9.02017 53.3287 9.32502 53.8234 9.93457L53.9134 9.17014H55.8771V17.01C55.8771 17.7197 55.7147 18.3367 55.3899 18.8614C55.07 19.3861 54.6178 19.7858 54.0332 20.0606C53.4486 20.3355 52.7641 20.4729 51.9796 20.4729C51.3849 20.4729 50.8053 20.353 50.2407 20.1131C49.676 19.8782 49.2488 19.5733 48.959 19.1987L49.9183 17.8795C50.4581 18.4841 51.1126 18.7863 51.8821 18.7863C52.4568 18.7863 52.9039 18.6315 53.2237 18.3217C53.5436 18.0168 53.7034 17.5821 53.7034 17.0176V16.5828C53.2037 17.1474 52.5467 17.4299 51.7323 17.4299C50.7578 17.4299 49.9684 17.0501 49.3638 16.2906C48.7642 15.526 48.4644 14.5141 48.4644 13.2549V13.165ZM50.6304 13.3225C50.6304 14.057 50.7778 14.6342 51.0727 15.0538C51.3674 15.4686 51.7722 15.676 52.2869 15.676C52.9465 15.676 53.4186 15.4285 53.7034 14.9339V11.5236C53.4136 11.0289 52.9465 10.7816 52.3019 10.7816C51.7822 10.7816 51.3725 10.9939 51.0727 11.4186C50.7778 11.8434 50.6304 12.4779 50.6304 13.3225ZM59.988 17.2799H57.8144V5.76733H59.988V17.2799ZM65.666 17.4299C64.4764 17.4299 63.5062 17.065 62.7572 16.3356C62.0127 15.606 61.6412 14.6342 61.6412 13.42V13.21C61.6412 12.3955 61.7978 11.6685 62.1124 11.0289C62.4271 10.3843 62.8723 9.8896 63.4464 9.54484C64.0266 9.19516 64.6867 9.02017 65.425 9.02017C66.5348 9.02017 67.4067 9.37 68.0406 10.0695C68.6807 10.7692 69 11.7609 69 13.0451V13.9296H63.8363C63.9069 14.4592 64.1156 14.8839 64.4656 15.2038C64.8202 15.5235 65.2684 15.6835 65.8072 15.6835C66.6423 15.6835 67.2946 15.3811 67.7643 14.7764L68.8281 15.9682C68.5042 16.428 68.0637 16.7878 67.5095 17.0475C66.9539 17.3023 66.3399 17.4299 65.666 17.4299ZM65.4173 10.7741C64.9891 10.7741 64.6391 10.919 64.3689 11.2088C64.1034 11.4986 63.9345 11.9134 63.8593 12.4531H66.8725V12.2807C66.8618 11.801 66.7328 11.4312 66.4826 11.1713C66.2324 10.9065 65.8778 10.7741 65.4173 10.7741Z" fill="#1F576F"/>
</svg>
