<svg width="32" height="32" viewBox="0 0 32 32" fill="none" xmlns="http://www.w3.org/2000/svg">
<path d="M8 12H24V32L16 27L8 32V12Z" fill="#009656"/>
<path d="M16 24C22.6274 24 28 18.6274 28 12C28 5.37258 22.6274 0 16 0C9.37258 0 4 5.37258 4 12C4 18.6274 9.37258 24 16 24Z" fill="#F3D52D"/>
<path d="M16 22C21.5228 22 26 17.5228 26 12C26 6.47715 21.5228 2 16 2C10.4772 2 6 6.47715 6 12C6 17.5228 10.4772 22 16 22Z" fill="#EACF38"/>
<path d="M16 22C21.5228 22 26 17.5228 26 12C26 6.47715 21.5228 2 16 2C10.4772 2 6 6.47715 6 12C6 17.5228 10.4772 22 16 22Z" fill="#EACF38"/>
<path d="M14.5 22C19.1944 22 23 17.5228 23 12C23 6.47715 19.1944 2 14.5 2C9.80558 2 6 6.47715 6 12C6 17.5228 9.80558 22 14.5 22Z" fill="#E4C403"/>
<path d="M16 21.75C21.3848 21.75 25.75 17.3848 25.75 12C25.75 6.61522 21.3848 2.25 16 2.25C10.6152 2.25 6.25 6.61522 6.25 12C6.25 17.3848 10.6152 21.75 16 21.75Z" stroke="#DABB07" stroke-width="0.5"/>
<path d="M15.3604 6.6226L13.9016 9.6217L10.6026 10.0953C10.0191 10.1855 9.79472 10.9071 10.2211 11.3355L12.5776 13.6582L12.0165 16.9279C11.9267 17.5142 12.5551 17.9652 13.0713 17.6946L16.0112 16.1387L18.9287 17.6946C19.4449 17.9652 20.0733 17.5142 19.9835 16.9279L19.4224 13.6582L21.7789 11.3355C22.2053 10.9071 21.9809 10.1855 21.3974 10.0953L18.1208 9.6217L16.6396 6.6226C16.3927 6.1039 15.6297 6.0814 15.3604 6.6226Z" fill="white"/>
</svg>
